<svg width="1031" height="248" viewBox="0 0 1031 248" fill="none" xmlns="http://www.w3.org/2000/svg">
<path d="M48.6969 25.0248C48.6969 31.7883 46.6678 37.8754 41.9334 42.6099C37.199 47.3443 31.7882 50.0495 24.3484 50.0495C17.585 50.0495 11.4979 48.0206 6.76345 42.6099C2.02904 37.8754 0 31.7883 0 25.0248C0 18.2614 2.02904 12.1743 6.76345 7.43984C11.4979 2.70542 16.9086 0 24.3484 0C31.1119 0 37.199 2.70542 41.9334 7.43984C45.9915 12.8506 48.6969 18.2614 48.6969 25.0248Z" fill="black"/>
<path d="M0 247.542H48.6969V91.9827H0V247.542Z" fill="black"/>
<path d="M194.777 91.9827H97.3831V140.68H194.777V91.9827Z" fill="black"/>
<path d="M487.629 1.35236C487.629 23.6717 484.923 45.991 478.836 66.9577C472.749 87.9244 464.633 107.538 454.488 125.8C443.666 144.061 431.492 160.293 416.613 175.173C401.733 190.052 385.501 202.903 367.239 213.725C348.978 224.546 330.041 232.662 309.074 238.749C288.107 244.837 266.464 247.542 244.145 247.542V198.169C267.14 198.169 288.783 194.787 309.074 187.347C329.364 179.907 395.646 127.829 407.144 110.244C418.642 91.9826 427.434 72.3685 432.845 51.4018H244.145V2.02875H487.629V1.35236Z" fill="black"/>
<path d="M723.672 142.032C720.29 165.028 707.439 181.26 685.796 190.053C674.298 194.787 661.448 196.816 646.568 196.816C645.216 196.816 643.863 196.816 643.187 196.816C628.307 197.493 615.456 195.464 603.959 191.406C577.581 181.937 562.025 160.97 560.672 130.535C560.672 121.742 560.672 112.949 562.025 105.51C565.407 83.1903 578.258 67.6344 598.548 58.8419C614.78 51.4021 633.718 49.373 656.037 51.4021C665.506 52.0784 674.975 54.1074 683.767 57.4891C709.468 66.2816 724.348 88.601 725.024 118.36C725.024 125.8 725.024 133.916 723.672 142.032ZM700 10.8214C681.738 4.0579 662.801 0.67618 643.187 0.67618C626.278 0.67618 608.693 3.38164 591.108 8.7924C559.996 18.2612 537.677 35.8462 523.474 62.9C511.299 85.2194 507.241 110.92 510.623 141.356C514.681 178.555 530.913 206.285 560.672 225.899C582.316 240.102 608.693 246.866 643.187 247.542C664.153 246.866 679.709 244.837 694.589 240.102C725.701 229.957 747.344 212.372 761.547 186.671C773.721 164.352 778.456 138.65 775.074 107.539C768.987 59.5181 743.962 27.0536 700 10.8214Z" fill="black"/>
<path d="M982.042 1.35236C982.042 16.2319 980.69 29.0824 977.308 40.5803C973.926 51.4018 969.192 60.8707 963.105 68.3105C957.018 75.7503 949.578 81.8375 940.785 86.5719C931.993 91.3063 922.524 94.688 911.702 96.0407C900.881 94.0116 891.412 90.6299 882.62 86.5719C873.827 81.8375 866.387 75.7503 860.3 68.3105C854.213 60.8707 849.479 51.4018 846.097 40.5803C842.715 29.7588 841.363 16.2319 841.363 1.35236H794.018C794.018 30.4352 798.753 54.7835 808.898 73.7211C818.367 93.3352 831.894 108.215 849.479 119.713C860.977 127.829 874.503 133.916 888.707 137.974V246.865H936.051V138.65C950.254 134.592 963.781 128.505 975.279 120.389C992.864 108.891 1006.39 93.3352 1015.86 74.3975C1025.33 54.7835 1030.74 31.1116 1030.74 2.02875H982.042V1.35236Z" fill="black"/>
</svg>
