<svg width="1068" height="246" viewBox="0 0 1068 246" fill="none" xmlns="http://www.w3.org/2000/svg">
<path d="M535.163 1.61133C551.315 1.61133 566.929 1.61133 583.081 1.61133C583.081 33.9153 583.081 65.6808 583.081 98.5232C593.31 98.5232 602.463 99.0616 612.154 98.5232C633.69 97.4464 655.226 96.908 675.685 89.3704C706.912 78.064 723.603 55.9896 727.371 23.1473C728.448 16.1481 728.448 9.14892 728.987 1.61133C745.139 1.61133 760.752 1.61133 776.904 1.61133C777.442 54.3744 760.214 96.908 710.143 122.751C760.214 148.056 777.981 190.589 776.904 243.891C760.752 243.891 745.139 243.891 728.987 243.891C728.448 235.277 727.91 226.662 726.295 218.586C720.372 180.898 696.683 160.439 661.149 152.901C635.844 147.517 610.001 146.979 583.081 146.979C583.081 179.283 583.081 211.587 583.081 243.891C566.39 243.891 550.777 243.891 534.625 243.891C535.163 163.669 535.163 82.9096 535.163 1.61133Z" fill="black"/>
<path d="M826.458 1.61262C842.609 1.61262 858.223 1.61262 873.837 1.61262C874.913 11.8422 875.452 21.5334 877.605 31.2246C884.066 67.8357 908.294 92.0637 944.905 97.9861C947.597 98.5245 950.289 97.9861 952.981 96.9093C991.207 88.2949 1013.82 62.9901 1018.13 24.2254C1019.2 16.6878 1019.2 9.15021 1020.28 1.61262C1021.9 1.61262 1023.51 1.07422 1024.59 1.07422C1039.12 1.07422 1053.12 1.07422 1067.66 1.07422C1070.89 56.5293 1046.66 118.445 971.287 141.058C971.287 174.977 971.287 208.896 971.287 243.354C955.135 243.354 938.983 243.354 922.831 243.354C922.831 209.435 922.831 175.516 922.831 141.596C843.148 116.83 824.304 52.2221 826.458 1.61262Z" fill="black"/>
<path d="M0.554688 100.146C16.7066 100.146 31.7818 100.146 47.3953 100.146C47.3953 148.064 47.3953 195.982 47.3953 243.899C31.7818 243.899 16.1682 243.899 0.554688 243.899C0.554688 196.52 0.554688 148.602 0.554688 100.146Z" fill="black"/>
<path d="M192.208 148.602C159.366 148.602 127.062 148.602 94.7578 148.602C94.7578 132.45 94.7578 116.837 94.7578 100.146C127.062 100.146 159.366 100.146 192.208 100.146C192.208 116.298 192.208 131.912 192.208 148.602Z" fill="black"/>
<path d="M23.6895 49.5289C10.2296 49.5289 0 38.7609 0 25.3009C0 11.8409 10.768 1.61133 24.2279 1.61133C37.6879 1.61133 47.9174 12.3793 47.9174 25.3009C47.9174 39.2993 37.6879 49.5289 23.6895 49.5289Z" fill="black"/>
<path d="M414.032 91.5278H307.968C296.123 91.5278 286.432 81.8367 286.432 69.9919C286.432 58.1471 296.123 48.4559 307.968 48.4559H440.414L467.334 0H307.968C269.203 0 237.976 31.2271 237.976 69.9919C237.976 108.218 269.203 139.984 307.968 139.984H414.032C430.184 139.984 443.106 152.905 443.106 168.519C443.106 184.133 430.184 197.054 414.032 197.054H251.975L225.055 245.51H414.032C456.566 245.51 491.562 211.052 491.562 168.519C491.562 125.985 456.566 91.5278 414.032 91.5278Z" fill="black"/>
</svg>
