<svg width="153" height="25" viewBox="0 0 153 25" fill="none" xmlns="http://www.w3.org/2000/svg">
<mask id="mask0_3894_3456" style="mask-type:luminance" maskUnits="userSpaceOnUse" x="0" y="0" width="153" height="25">
<path d="M152.586 0H0V25H152.586V0Z" fill="white"/>
</mask>
<g mask="url(#mask0_3894_3456)">
<path d="M46.7992 0.493436C45.9692 1.99775 45.2301 3.42448 44.3876 4.78654C44.2234 5.05163 43.6634 5.17877 43.2834 5.18093C39.5859 5.21111 35.8876 5.20033 32.1892 5.20033C31.7942 5.20033 31.3984 5.19171 31.0034 5.20895C29.7167 5.26498 28.7384 6.19602 28.7451 7.34688C28.7492 8.43092 29.7001 9.39642 30.9367 9.45467C32.1542 9.51283 33.3784 9.47192 34.5984 9.47192C36.8959 9.47192 39.1934 9.46758 41.4926 9.474C45.4517 9.487 48.7342 12.2952 49.2884 16.1357C49.8309 19.9007 47.4842 23.515 43.7209 24.6443C43.1117 24.8275 42.4517 24.9374 41.8159 24.9396C35.5334 24.9611 29.2534 24.9525 22.6567 24.9525C23.6217 23.2736 24.4759 21.7327 25.4067 20.2434C25.5276 20.0495 26.0617 20.0646 26.4042 20.0646C31.3226 20.0537 36.2426 20.0602 41.1609 20.0559C43.1693 20.0559 44.4926 18.9202 44.4951 17.2047C44.4967 15.5128 43.1434 14.3533 41.1501 14.3512C37.8459 14.3469 34.5426 14.3878 31.2409 14.3383C26.7367 14.2693 23.6159 10.9633 23.9501 6.69171C24.2126 3.34688 27.0276 0.461108 30.4776 0.377057C35.7517 0.247746 41.0317 0.338263 46.3092 0.340419C46.4109 0.340419 46.5126 0.398608 46.8009 0.489125L46.7992 0.493436Z" fill="#000"/>
<path d="M99.4424 24.9101H94.5541V19.104C93.3149 19.104 92.184 19.104 91.0499 19.104C89.7199 19.104 88.3924 19.0868 87.0632 19.1105C86.4766 19.1213 86.214 18.9252 86.2332 18.3044C86.2657 17.2268 86.2699 16.1471 86.2307 15.0717C86.2074 14.4101 86.4641 14.1924 87.1107 14.1988C89.2291 14.2248 91.3499 14.173 93.4657 14.2226C94.3282 14.2441 94.5782 13.9467 94.5607 13.104C94.5116 10.7743 94.5432 8.44242 94.5432 6.10187C89.1082 6.79584 79.7982 13.0674 79.4032 24.9726C78.6041 24.9726 77.7957 24.9726 76.9874 24.9726C76.179 24.9726 75.4166 24.9726 74.4141 24.9726C74.5432 23.5458 74.5432 22.1859 74.8091 20.8778C76.7549 11.2657 82.4382 4.82385 91.6382 1.60403C93.8366 0.834627 96.2699 0.735489 98.5999 0.347559C99.164 0.252731 99.5566 0.384196 99.5541 1.12127C99.5324 8.882 99.5349 16.6407 99.5265 24.4014C99.5265 24.5393 99.4807 24.6773 99.4424 24.9101Z" fill="#000"/>
<path d="M58.0418 15.1093C58.0418 16.6266 58.0418 18.1287 58.0418 19.6287C58.0418 21.1373 58.0335 22.646 58.0418 24.1546C58.0443 24.6373 57.9793 24.9908 57.3527 24.9757C56.0293 24.9456 54.706 24.9671 53.281 24.9671C53.2443 24.5878 53.1885 24.2817 53.1885 23.9757C53.1843 19.7365 53.2102 15.4972 53.171 11.2581C53.1627 10.4024 53.4302 10.1546 54.2727 10.1567C57.1068 10.1632 59.9452 10.1503 62.7768 10.0317C65.236 9.92833 67.6668 9.52316 69.6693 7.9434C70.4752 7.30762 71.0718 6.40891 71.766 5.6309C71.6927 5.51883 71.6193 5.40676 71.5443 5.2947C71.1693 5.2753 70.7943 5.24081 70.4193 5.24081C65.1043 5.23651 59.7902 5.21064 54.4752 5.25806C53.4235 5.26667 53.0635 4.94771 53.1693 3.91107C53.2535 3.09426 53.2402 2.2559 53.1693 1.43478C53.0893 0.503746 53.486 0.292539 54.346 0.294694C60.8093 0.322711 67.2727 0.309781 73.7385 0.309781C74.7443 0.309781 75.7485 0.329177 76.7552 0.309781C77.3652 0.296849 77.5527 0.561936 77.5485 1.15676C77.5035 7.64383 73.8477 12.3895 67.5227 13.7774C64.6627 14.4046 61.7102 14.5986 58.7985 14.9908C58.5893 15.0188 58.3827 15.0555 58.0418 15.1072V15.1093Z" fill="#000"/>
<path d="M126.908 24.6673C122.685 24.6673 118.735 24.803 114.798 24.6349C109.127 24.3914 104.334 19.8353 103.481 14.1436C102.633 8.5035 105.875 2.94098 111.299 0.979767C112.722 0.466834 114.293 0.206058 115.808 0.150023C119.071 0.027178 122.34 0.111231 125.608 0.109076C125.953 0.109076 126.299 0.109076 126.916 0.109076C125.948 1.81382 125.138 3.31382 124.239 4.75563C124.093 4.98838 123.543 5.05088 123.178 5.05304C120.703 5.0789 118.224 5.04011 115.748 5.07675C111.332 5.13925 108.188 8.44958 108.334 12.8375C108.461 16.6285 111.674 19.6371 115.768 19.7254C118.207 19.7793 120.651 19.7578 123.09 19.7276C123.808 19.719 124.272 19.8914 124.623 20.5918C125.288 21.9237 126.073 23.1953 126.909 24.6651L126.908 24.6673Z" fill="#000"/>
<path d="M148.87 10.7719C148.87 12.0736 148.859 13.2137 148.874 14.3559C148.883 15.093 148.37 15.0046 147.907 15.0068C144.461 15.009 141.012 15.0068 137.567 15.0111C135.883 15.0132 135.567 15.3344 135.553 17.0326C135.547 17.7158 135.597 18.4012 135.542 19.0801C135.473 19.9206 135.777 20.1921 136.637 20.1856C141.447 20.1491 146.26 20.1684 151.072 20.1706C152.054 20.1706 152.546 20.6483 152.547 21.6038C152.547 22.6727 152.547 23.7439 152.547 24.8926H130.243C130.243 24.4292 130.239 23.9745 130.243 23.5219C130.273 20.759 130.192 17.9874 130.374 15.2352C130.534 12.8193 132.075 11.3624 134.502 10.9961C135.457 10.8516 136.431 10.7913 137.396 10.7848C141.163 10.7611 144.928 10.7762 148.872 10.7762L148.87 10.7719Z" fill="#000"/>
<path d="M141.386 0.425933C144.758 0.425933 148.132 0.445329 151.504 0.408691C152.291 0.40007 152.614 0.617743 152.558 1.44102C152.497 2.33326 152.496 3.23844 152.558 4.13068C152.617 4.9755 152.321 5.24274 151.467 5.23628C146.696 5.19964 141.922 5.21904 137.151 5.21904C136.097 5.21904 135.567 5.73412 135.565 6.76429C135.565 7.58973 135.534 8.41734 135.571 9.24059C135.602 9.94534 135.306 10.0876 134.657 9.99709C132.166 9.65442 130.342 7.50137 130.247 4.69102C130.211 3.61559 130.287 2.53369 130.227 1.46042C130.181 0.65438 130.463 0.402226 131.265 0.410847C134.638 0.447484 138.011 0.425932 141.383 0.423777L141.386 0.425933Z" fill="#000"/>
<path d="M4.91047 10.3515C4.91047 15.0842 4.9213 19.6057 4.88046 24.1273C4.88046 24.3515 4.4413 24.7459 4.18464 24.763C3.1138 24.8342 2.02962 24.8428 0.960456 24.7588C0.686289 24.7372 0.225473 24.289 0.222973 24.0346C0.177973 19.7265 0.180472 15.4182 0.212139 11.1101C0.212139 10.8557 0.537962 10.3967 0.727962 10.386C2.07713 10.3235 3.43047 10.3515 4.91047 10.3515Z" fill="#000"/>
<path d="M9.70044 15.2479V10.4785H19.3838C19.3838 11.9289 19.4029 13.3148 19.3596 14.7005C19.3538 14.888 19.0413 15.2221 18.8688 15.2242C15.8338 15.2565 12.7996 15.2479 9.70044 15.2479Z" fill="#000"/>
<path d="M0.182387 2.82407C0.186554 1.47278 1.18654 0.498641 2.57654 0.49002C3.88321 0.483554 4.91739 1.54175 4.91739 2.88873C4.91739 4.29606 3.88488 5.2939 2.45821 5.26804C1.10904 5.24217 0.17822 4.24217 0.182387 2.82407Z" fill="#000"/>
</g>
</svg>
